<svg version="1" id="svg2" xmlns="http://www.w3.org/2000/svg" viewBox="0 0 192 102"><style>.st0{fill:#fff}</style><g id="g10" transform="matrix(1.33333 0 0 -1.33333 0 102)"><g id="g12" transform="scale(.1)"><path id="path14" class="st0" d="M717 132c75 0 120 50 120 123s-45 123-120 123-120-50-120-123 45-123 120-123zM459 768h150V446h2c34 47 92 64 154 64 138 0 222-124 222-259C987 104 892 0 748 0c-68 0-126 41-149 76h-2V12H459v756"/><path id="path16" class="st0" d="M284 254c0 56-38 90-93 90s-92-34-92-90 37-90 92-90 93 34 93 90zM0 254c0 112 75 202 191 202 117 0 192-90 192-202S308 51 191 51C75 51 0 141 0 254"/><path id="path18" class="st0" d="M1271 293c0-34 3-111 53-111 27 0 39 29 39 53 0 45-23 86-68 86h-24v-28zm114 28v-2c39-24 55-69 55-115 0-68-39-130-113-130-126 0-128 153-128 247-40 0-65-33-65-72 0-37 16-67 43-91l-61-60c-39 41-59 101-59 160 0 131 67 167 189 167h185V321h-46"/></g></g></svg>