<?xml version="1.0" encoding="utf-8"?>
<!-- Generator: Adobe Illustrator 23.0.2, SVG Export Plug-In . SVG Version: 6.00 Build 0)  -->
<svg version="1.1"
	 id="svg2" xmlns:cc="http://creativecommons.org/ns#" xmlns:dc="http://purl.org/dc/elements/1.1/" xmlns:rdf="http://www.w3.org/1999/02/22-rdf-syntax-ns#" xmlns:svg="http://www.w3.org/2000/svg"
	 xmlns="http://www.w3.org/2000/svg" xmlns:xlink="http://www.w3.org/1999/xlink" x="0px" y="0px" viewBox="0 0 192 102.4"
	 style="enable-background:new 0 0 192 102.4;" xml:space="preserve">
<style type="text/css">
	.st0{fill:#FFFFFF;}
</style>
<g id="g10" transform="matrix(1.3333333,0,0,-1.3333333,0,102.4)">
	<g id="g12" transform="scale(0.1)">
		<path id="path14" class="st0" d="M716.7,132c75,0,120,50,120,123c0,73-45,123-120,123s-120-50-120-123
			C596.7,182,641.7,132,716.7,132z M458.7,768h150V446h2c34,47,92,64,154,64c138,0,222-124,222-259c0-147-95-251-239-251
			c-68,0-126,41-149,76h-2V12h-138V768"/>
		<path id="path16" class="st0" d="M283.5,253.8c0,56.3-37.5,90-92.3,90c-54.7,0-92.2-33.8-92.2-90s37.5-90,92.2-90
			C246,163.8,283.5,197.6,283.5,253.8z M0,253.8c0,112.5,75,202.5,191.3,202.5c116.3,0,191.3-90,191.3-202.5s-75-202.5-191.3-202.5
			C75,51.3,0,141.3,0,253.8"/>
		<path id="path18" class="st0" d="M1271,293.2c0-34.5,3-111,52.5-111c27,0,39.8,28.5,39.8,53.3c0,44.3-23.3,85.5-68.3,85.5h-24
			V293.2z M1385,320.9v-1.5c39-24.8,54.8-69.8,54.8-115.5c0-68.2-39-129.7-112.5-129.7c-126,0-128.3,153-128.3,246.8
			c-39.8,0-65.3-33-65.3-72c0-36.7,16.5-67.5,43.5-91.5l-61.5-60c-39,41.2-58.5,101.2-58.5,160.5c0,131.3,66.7,166.5,188.3,166.5
			h185.3V320.9L1385,320.9"/>
	</g>
</g>
</svg>
